HIERARCHY
ROOT joint_0
{
	OFFSET 0.000000 0.000000 0.000000
	CHANNELS 6 Xposition Yposition Zposition Zrotation Yrotation Xrotation 
	JOINT joint_1
	{
		OFFSET 0.000000 0.000000 0.000000
		CHANNELS 3 Zrotation Yrotation Xrotation
		JOINT joint_2
		{
			OFFSET 1.363060 -1.794630 0.839290
			CHANNELS 3 Zrotation Yrotation Xrotation
			JOINT joint_3
			{
				OFFSET 2.448110 -6.726130 0.000000
				CHANNELS 3 Zrotation Yrotation Xrotation
				JOINT joint_4
				{
					OFFSET 2.562200 -7.039590 0.000000
					CHANNELS 3 Zrotation Yrotation Xrotation
					JOINT joint_5
					{
						OFFSET 0.157640 -0.433110 2.322550
						CHANNELS 3 Zrotation Yrotation Xrotation
						End Site
						{
							OFFSET 0.000000 0.000000 0.000000
						}
					}
				}
			}
		}
	}
	JOINT joint_6
	{
		OFFSET 0.000000 0.000000 0.000000
		CHANNELS 3 Zrotation Yrotation Xrotation
		JOINT joint_7
		{
			OFFSET -1.305520 -1.794630 0.839290
			CHANNELS 3 Zrotation Yrotation Xrotation
			JOINT joint_8
			{
				OFFSET -2.542530 -6.985550 0.000000
				CHANNELS 3 Zrotation Yrotation Xrotation
				JOINT joint_9
				{
					OFFSET -2.568260 -7.056230 0.000000
					CHANNELS 3 Zrotation Yrotation Xrotation
					JOINT joint_10
					{
						OFFSET -0.164730 -0.452590 2.363150
						CHANNELS 3 Zrotation Yrotation Xrotation
						End Site
						{
							OFFSET 0.000000 0.000000 0.000000
						}
					}
				}
			}
		}
	}
	JOINT joint_11
	{
		OFFSET 0.000000 0.000000 0.000000
		CHANNELS 3 Zrotation Yrotation Xrotation
		JOINT joint_12
		{
			OFFSET 0.028270 2.035590 -0.193380
			CHANNELS 3 Zrotation Yrotation Xrotation
			JOINT joint_13
			{
				OFFSET 0.056720 2.048850 -0.042750
				CHANNELS 3 Zrotation Yrotation Xrotation
				JOINT joint_14
				{
					OFFSET 0.000000 0.000000 0.000000
					CHANNELS 3 Zrotation Yrotation Xrotation
					JOINT joint_15
					{
						OFFSET -0.054170 1.746240 0.172020
						CHANNELS 3 Zrotation Yrotation Xrotation
						JOINT joint_16
						{
							OFFSET 0.104070 1.761360 -0.123970
							CHANNELS 3 Zrotation Yrotation Xrotation
							End Site
							{
								OFFSET 0.000000 0.000000 0.000000
							}
						}
					}
				}
				JOINT joint_17
				{
					OFFSET 0.000000 0.000000 0.000000
					CHANNELS 3 Zrotation Yrotation Xrotation
					JOINT joint_18
					{
						OFFSET 3.362410 1.200890 -0.311210
						CHANNELS 3 Zrotation Yrotation Xrotation
						JOINT joint_19
						{
							OFFSET 4.983000 -0.000000 -0.000000
							CHANNELS 3 Zrotation Yrotation Xrotation
							JOINT joint_20
							{
								OFFSET 3.483560 -0.000000 -0.000000
								CHANNELS 3 Zrotation Yrotation Xrotation
								JOINT joint_21
								{
									OFFSET 0.000000 0.000000 0.000000
									CHANNELS 3 Zrotation Yrotation Xrotation
									JOINT joint_22
									{
										OFFSET 0.715260 -0.000000 -0.000000
										CHANNELS 3 Zrotation Yrotation Xrotation
										End Site
										{
											OFFSET 0.000000 0.000000 0.000000
										}
									}
								}
								JOINT joint_23
								{
									OFFSET 0.000000 0.000000 0.000000
									CHANNELS 3 Zrotation Yrotation Xrotation
									End Site
									{
										OFFSET 0.000000 0.000000 0.000000
									}
								}
							}
						}
					}
				}
				JOINT joint_24
				{
					OFFSET 0.000000 0.000000 0.000000
					CHANNELS 3 Zrotation Yrotation Xrotation
					JOINT joint_25
					{
						OFFSET -3.136600 1.374050 -0.404650
						CHANNELS 3 Zrotation Yrotation Xrotation
						JOINT joint_26
						{
							OFFSET -5.241900 -0.000000 -0.000000
							CHANNELS 3 Zrotation Yrotation Xrotation
							JOINT joint_27
							{
								OFFSET -3.444170 -0.000000 -0.000000
								CHANNELS 3 Zrotation Yrotation Xrotation
								JOINT joint_28
								{
									OFFSET 0.000000 0.000000 0.000000
									CHANNELS 3 Zrotation Yrotation Xrotation
									JOINT joint_29
									{
										OFFSET -0.622530 -0.000000 -0.000000
										CHANNELS 3 Zrotation Yrotation Xrotation
										End Site
										{
											OFFSET 0.000000 0.000000 0.000000
										}
									}
								}
								JOINT joint_30
								{
									OFFSET 0.000000 0.000000 0.000000
									CHANNELS 3 Zrotation Yrotation Xrotation
									End Site
									{
										OFFSET 0.000000 0.000000 0.000000
									}
								}
							}
						}
					}
				}
			}
		}
	}
}
MOTION
Frames: 11
Frame Time: 0.041667
9.085500 17.980400 31.777500 -174.393000 1.235700 174.702000 0.000000 0.000000 0.000000 -10.564200 -1.393300 -4.056600 1.234300 7.045300 19.849800 0.304800 -0.960500 -10.134100 0.031800 -1.151100 -3.164600 0.000000 0.000000 0.000000 21.949100 3.277600 -2.973700 -1.458200 -7.632300 21.602700 -0.241900 -4.818900 -12.324100 -0.157900 -2.560600 7.057600 2.569800 0.490600 11.538500 3.618800 1.467700 -0.159200 2.106500 0.789500 -6.693900 -6.866500 -4.041900 -9.002500 5.377500 -5.660000 14.386800 2.356800 -2.852700 6.186100 0.000000 0.000000 0.000000 -91.134500 11.305500 35.588700 30.776300 -41.549600 -11.921200 0.000000 0.000000 -4.916900 21.766200 -13.781700 -5.433600 -7.125000 0.000000 0.000000 -3.858400 15.208100 2.717400 0.000000 0.000000 0.000000 84.551300 -3.915800 22.849500 -19.803200 30.404500 -5.431400 0.000000 0.000000 -15.669100 -22.878700 -24.674200 9.990600 7.125000 0.000000 0.000000 7.246800 -56.335300 -2.021800 
9.082400 17.988600 31.764700 -174.828000 1.492600 175.120000 0.000000 0.000000 0.000000 -11.047100 -1.444900 -3.945400 1.149300 6.807000 19.144900 0.300500 -0.591900 -10.163000 0.021800 -0.952300 -2.617500 0.000000 0.000000 0.000000 21.446600 3.569000 -3.414000 -1.467200 -7.654700 21.670100 -0.244600 -4.670700 -12.242700 -0.141800 -2.426700 6.686500 2.333300 0.633500 11.509200 3.428900 1.591300 -0.124000 2.018500 0.847000 -6.641500 -6.641300 -4.038900 -9.074500 5.161000 -5.559200 13.641100 2.262900 -2.783300 5.945500 0.000000 0.000000 0.000000 -90.543800 10.644500 37.388600 32.007600 -42.553200 -12.746000 0.000000 0.000000 -3.530900 22.490800 -14.173100 -5.788600 -7.125000 0.000000 0.000000 -3.383400 14.711300 2.417500 0.000000 0.000000 0.000000 84.374200 -2.654600 23.096100 -20.551700 31.301300 -5.815300 0.000000 0.000000 -16.005200 -22.633700 -24.547500 9.827300 7.125000 0.000000 0.000000 7.455200 -56.152600 -2.047300 
9.076500 17.994300 31.754300 -175.167000 1.495800 175.414000 0.000000 0.000000 0.000000 -11.403000 -1.247500 -4.100500 1.100200 6.665100 18.726900 0.306300 -0.573400 -10.267700 0.024500 -1.010700 -2.778200 0.000000 0.000000 0.000000 21.008600 3.629200 -3.888300 -1.494900 -7.723500 21.877400 -0.242500 -4.580400 -12.131100 -0.114600 -2.182900 6.011300 2.117000 0.660000 11.604600 3.336500 1.586100 0.006700 2.042700 0.848800 -6.558500 -6.611600 -4.048700 -9.892600 4.818400 -5.412700 13.462200 2.149400 -2.702200 6.011600 0.000000 0.000000 0.000000 -90.084100 9.606400 38.749800 33.145900 -43.441900 -13.522300 0.000000 0.000000 -2.378100 22.448200 -13.843100 -5.645500 -7.125000 0.000000 0.000000 -3.394900 15.068700 2.399800 0.000000 0.000000 0.000000 84.074900 -1.275200 23.415200 -21.163100 32.018300 -6.136200 0.000000 0.000000 -16.306000 -22.485900 -22.700200 9.075600 7.125000 0.000000 0.000000 6.899100 -54.205900 -1.566600 
9.089500 17.997600 31.760000 -175.083000 1.389100 175.636000 0.000000 0.000000 0.000000 -11.160400 -0.816000 -4.458700 1.085400 6.621300 18.598200 0.299700 -1.198500 -9.990000 0.007500 -0.558200 -1.534000 0.000000 0.000000 0.000000 21.198700 3.979900 -4.164400 -1.528800 -7.806700 22.128400 -0.229300 -5.038300 -12.306100 -0.089900 -1.934200 5.323800 2.005100 0.577500 12.336900 3.533100 1.527100 -0.209700 2.319800 0.829600 -7.211400 -7.175200 -3.946100 -10.089400 4.821900 -5.149400 13.387500 2.262800 -2.592300 6.021800 0.000000 0.000000 0.000000 -89.936600 9.158500 39.433300 33.977600 -44.068100 -14.097500 0.000000 0.000000 -1.258300 22.472900 -14.182900 -5.787400 -7.125000 0.000000 0.000000 -3.396100 14.702900 2.427300 0.000000 0.000000 0.000000 83.813100 -0.442800 22.940800 -21.695900 32.631600 -6.421100 0.000000 0.000000 -16.220400 -22.134300 -21.991300 8.660500 7.125000 0.000000 0.000000 7.010600 -53.400800 -1.454100 
9.081800 17.979200 31.751100 -175.524000 1.319500 175.641000 0.000000 0.000000 0.000000 -11.690600 -1.176300 -4.450900 1.112200 6.700200 18.830100 0.316500 -1.092400 -10.298600 0.001500 -0.251900 -0.692200 0.000000 0.000000 0.000000 20.683700 3.948200 -4.211600 -1.564200 -7.892300 22.387400 -0.256300 -4.865800 -12.602300 -0.109500 -2.133800 5.875500 1.874300 0.611000 12.713400 3.346400 1.542900 -0.102800 2.189400 0.834600 -7.307500 -7.054800 -3.863800 -10.092100 4.317100 -4.926700 12.848900 2.105300 -2.498500 5.824300 0.000000 0.000000 0.000000 -89.556400 8.260100 39.774800 34.167100 -44.208200 -14.229500 0.000000 0.000000 -0.188400 22.306300 -14.646300 -5.922300 -7.125000 0.000000 0.000000 -3.535000 14.227300 2.562700 0.000000 0.000000 0.000000 83.992000 0.489500 22.011400 -22.364200 33.386100 -6.785200 0.000000 0.000000 -15.378700 -21.649400 -20.738700 8.000700 7.125000 0.000000 0.000000 7.084100 -52.008500 -1.227500 
9.082500 17.969900 31.742900 -175.564000 1.528000 175.856000 0.000000 0.000000 0.000000 -11.765400 -1.490600 -4.617800 1.142500 6.787700 19.087800 0.344200 -0.693300 -10.860200 0.015700 -0.808800 -2.222800 0.000000 0.000000 0.000000 20.668800 4.386200 -4.534900 -1.621900 -8.029600 22.804100 -0.282300 -4.850400 -13.004800 -0.121100 -2.243100 6.178100 1.902100 0.710200 13.027100 3.353000 1.695400 -0.213600 2.149600 0.906100 -7.607700 -6.587900 -3.736200 -10.055200 3.427400 -4.684500 12.665400 1.771100 -2.417200 5.714600 0.000000 0.000000 0.000000 -89.455600 7.812400 39.712700 34.002400 -44.086500 -14.114800 0.000000 0.000000 0.379400 22.553900 -15.125400 -6.185000 -7.125000 0.000000 0.000000 -3.395100 13.686800 2.499900 0.000000 0.000000 0.000000 84.191200 1.134500 21.064600 -22.786600 33.854700 -7.019100 0.000000 0.000000 -14.502400 -22.105000 -22.229800 8.735700 7.125000 0.000000 0.000000 7.123600 -53.643200 -1.520000 
9.080500 17.969500 31.732100 -175.633000 1.639300 175.808000 0.000000 0.000000 0.000000 -11.841800 -1.495400 -4.509600 1.150800 6.811300 19.157400 0.369100 -0.850500 -11.209800 0.003400 -0.376400 -1.034100 0.000000 0.000000 0.000000 20.631600 4.617800 -4.653700 -1.684800 -8.176100 23.250200 -0.277900 -5.067900 -13.120300 -0.093300 -1.969700 5.421900 1.800200 0.532700 13.148400 3.515300 1.474200 -0.061300 2.421200 0.814100 -7.514500 -6.828300 -3.365600 -9.672000 3.086500 -4.085100 11.924200 1.762100 -2.149000 5.386000 0.000000 0.000000 0.000000 -89.661500 7.448100 38.852900 33.868300 -43.986900 -14.021500 0.000000 0.000000 0.363100 22.656300 -15.195000 -6.243700 -7.125000 0.000000 0.000000 -3.330300 13.600200 2.458100 0.000000 0.000000 0.000000 84.061500 1.818700 21.124500 -23.301400 34.416700 -7.307900 0.000000 0.000000 -14.098000 -22.354300 -21.603900 8.609900 7.125000 0.000000 0.000000 6.655300 -53.038200 -1.320800 
9.076900 17.961500 31.701100 -175.693000 1.865500 175.765000 0.000000 0.000000 0.000000 -11.930200 -1.426000 -4.428500 1.163400 6.847300 19.263800 0.372800 -0.645200 -11.324500 0.013200 -0.742500 -2.040600 0.000000 0.000000 0.000000 20.596700 4.794000 -4.571700 -1.716100 -8.247900 23.469700 -0.287500 -5.127400 -13.319400 -0.082600 -1.854000 5.102400 1.807600 0.624300 13.221900 3.531500 1.605300 0.162800 2.406400 0.883500 -7.320000 -6.680700 -3.221200 -9.635200 2.849200 -3.850700 11.376200 1.685800 -2.029800 5.190100 0.000000 0.000000 0.000000 -89.392800 6.950800 38.664400 33.834900 -43.962100 -13.998400 0.000000 0.000000 -0.099700 22.724200 -14.106400 -5.828100 -7.125000 0.000000 0.000000 -3.220600 14.756400 2.297700 0.000000 0.000000 0.000000 84.199100 2.430800 20.475300 -23.865900 35.022200 -7.629500 0.000000 0.000000 -14.211400 -23.074100 -21.086000 8.713500 7.125000 0.000000 0.000000 5.758000 -52.628700 -1.083900 
9.071100 17.955000 31.670700 -175.453000 2.046600 175.743000 0.000000 0.000000 0.000000 -11.698800 -1.342000 -4.281700 1.160500 6.839200 19.239800 0.375800 -0.621500 -11.378200 0.018400 -0.875000 -2.404900 0.000000 0.000000 0.000000 20.871800 4.932600 -4.476800 -1.743700 -8.310500 23.661200 -0.308000 -5.075500 -13.587100 -0.064500 -1.638700 4.508100 2.281100 0.670200 13.126900 3.514900 1.740600 0.396800 2.093800 0.941300 -7.006800 -6.082200 -3.295400 -9.797600 2.152800 -3.927600 11.199300 1.364500 -2.081000 5.140600 0.000000 0.000000 0.000000 -89.033500 6.186900 38.530800 33.221300 -43.499400 -13.574200 0.000000 0.000000 -0.712500 22.696800 -13.000400 -5.375000 -7.125000 0.000000 0.000000 -3.181200 15.944200 2.188400 0.000000 0.000000 0.000000 84.406700 2.869100 20.163500 -24.418000 35.603200 -7.948600 0.000000 0.000000 -14.697300 -23.120200 -20.742900 8.598900 7.125000 0.000000 0.000000 5.606600 -52.276100 -1.006800 
9.071700 17.951500 31.636600 -175.559000 2.013600 175.644000 0.000000 0.000000 0.000000 -11.848100 -1.400700 -3.942800 1.139100 6.777900 19.059000 0.358600 -0.334600 -11.198400 0.026800 -1.056100 -2.903300 0.000000 0.000000 0.000000 20.800800 5.023800 -4.283400 -1.767300 -8.363500 23.823800 -0.336400 -5.090300 -14.018900 -0.049600 -1.436600 3.951000 2.284400 0.592300 12.966200 3.476200 1.626900 0.656900 2.072600 0.891800 -6.634900 -6.010400 -3.231800 -9.581300 1.943300 -3.826900 10.772200 1.301300 -2.035600 4.962300 0.000000 0.000000 0.000000 -88.601300 5.655100 38.246400 32.822000 -43.192800 -13.300100 0.000000 0.000000 -1.719300 23.010400 -12.052800 -5.067800 -7.125000 0.000000 0.000000 -2.918600 16.930300 1.944700 0.000000 0.000000 0.000000 84.472300 3.233000 20.214700 -24.990300 36.194000 -8.284200 0.000000 0.000000 -15.488000 -22.686500 -19.848500 8.078400 7.125000 0.000000 0.000000 5.779200 -51.258000 -0.893400 
9.072500 17.946700 31.600400 -175.296000 2.242900 175.567000 0.000000 0.000000 0.000000 -11.576700 -1.522200 -3.695000 1.158500 6.833400 19.222900 0.371000 -0.048100 -11.489700 0.023500 -0.990500 -2.722800 0.000000 0.000000 0.000000 21.148800 5.012900 -3.927700 -1.738500 -8.298600 23.624800 -0.350500 -4.974000 -14.126900 -0.030800 -1.132200 3.112700 2.505800 0.501000 12.990500 3.688300 1.577000 0.807200 2.180100 0.877700 -6.489200 -6.655100 -3.023500 -9.773700 2.306800 -3.489000 10.986100 1.540100 -1.876400 5.065600 0.000000 0.000000 0.000000 -88.453000 5.382600 37.753900 32.420400 -42.879800 -13.026000 0.000000 0.000000 -2.611600 23.751600 -11.319800 -4.936600 -7.125000 0.000000 0.000000 -2.366500 17.649700 1.538900 0.000000 0.000000 0.000000 84.147000 3.189500 20.807500 -25.761600 36.972300 -8.743900 0.000000 0.000000 -16.193500 -22.915100 -20.218400 8.311800 7.125000 0.000000 0.000000 5.657700 -51.687300 -0.934200 
